<svg width="24" height="24" viewBox="0 0 24 24" fill="none" xmlns="http://www.w3.org/2000/svg">
<path d="M20.283 10.356H11.956V13.807H16.748C16.302 16 14.435 17.26 11.956 17.26C11.2623 17.2612 10.5753 17.1254 9.93418 16.8605C9.2931 16.5955 8.71063 16.2066 8.22018 15.7161C7.72973 15.2256 7.34095 14.643 7.07614 14.0019C6.81132 13.3608 6.67568 12.6737 6.677 11.98C6.67581 11.2864 6.81155 10.5994 7.07642 9.95841C7.3413 9.3174 7.7301 8.73497 8.22054 8.24454C8.71097 7.7541 9.2934 7.3653 9.93441 7.10042C10.5754 6.83555 11.2624 6.69981 11.956 6.701C13.215 6.701 14.353 7.148 15.246 7.879L17.846 5.28C16.262 3.899 14.231 3.047 11.956 3.047C10.7819 3.04383 9.61871 3.27276 8.53336 3.72061C7.44801 4.16846 6.46187 4.82642 5.63164 5.65665C4.80141 6.48688 4.14346 7.47301 3.69561 8.55836C3.24775 9.64371 3.01883 10.8069 3.022 11.981C3.01843 13.1552 3.24708 14.3186 3.6948 15.4041C4.14251 16.4896 4.80045 17.4759 5.63076 18.3062C6.46107 19.1366 7.44736 19.7945 8.53289 20.2422C9.61842 20.6899 10.7818 20.9186 11.956 20.915C16.423 20.915 20.485 17.666 20.485 11.981C20.485 11.453 20.404 10.884 20.283 10.356Z" fill="white"/>
</svg>
