<svg width="24" height="24" viewBox="0 0 24 24" fill="none" xmlns="http://www.w3.org/2000/svg">
<path d="M14.82 4.26C14.6211 4.61553 14.4441 4.98288 14.29 5.36C12.7727 5.12071 11.2273 5.12071 9.70999 5.36C9.5559 4.98288 9.3789 4.61553 9.17999 4.26C7.75078 4.5042 6.3614 4.94154 5.04999 5.56C2.70493 8.94429 1.64143 13.053 2.04999 17.15C3.57823 18.2989 5.29345 19.1751 7.11999 19.74C7.53552 19.1903 7.90669 18.6085 8.22999 18C7.63419 17.78 7.06145 17.502 6.51999 17.17C6.66843 17.0712 6.80886 16.9608 6.93999 16.84C8.51845 17.6003 10.248 17.9951 12 17.9951C13.752 17.9951 15.4815 17.6003 17.06 16.84C17.2 16.96 17.34 17.07 17.48 17.17C16.9354 17.4989 16.3632 17.78 15.77 18.01C16.0795 18.6326 16.4407 19.228 16.85 19.79C18.6746 19.2278 20.3869 18.3513 21.91 17.2C22.3284 13.1022 21.264 8.99019 18.91 5.61C17.6137 4.97772 16.2379 4.52361 14.82 4.26ZM8.67999 14.81C8.17958 14.7741 7.71254 14.5457 7.37691 14.1728C7.04129 13.7999 6.86319 13.3114 6.87999 12.81C6.86065 12.3079 7.03788 11.8181 7.37401 11.4446C7.71013 11.0711 8.17865 10.8435 8.67999 10.81C9.18133 10.8435 9.64986 11.0711 9.98598 11.4446C10.3221 11.8181 10.4993 12.3079 10.48 12.81C10.4993 13.3121 10.3221 13.8019 9.98598 14.1754C9.64986 14.5489 9.18133 14.7765 8.67999 14.81ZM15.32 14.81C14.8196 14.7741 14.3525 14.5457 14.0169 14.1728C13.6813 13.7999 13.5032 13.3114 13.52 12.81C13.5007 12.3079 13.6779 11.8181 14.014 11.4446C14.3501 11.0711 14.8187 10.8435 15.32 10.81C15.8223 10.841 16.2923 11.0679 16.6289 11.4419C16.9656 11.816 17.1419 12.3073 17.12 12.81C17.1419 13.3128 16.9656 13.804 16.6289 14.1781C16.2923 14.5521 15.8223 14.779 15.32 14.81Z" fill="white"/>
</svg>
