<?xml version="1.0" encoding="UTF-8"?>
<svg id="_Слой_1" data-name="Слой 1" xmlns="http://www.w3.org/2000/svg" xmlns:xlink="http://www.w3.org/1999/xlink" viewBox="0 0 3200 3200">
  <defs>
    <style>
      .cls-1 {
        fill: url(#_Безымянный_градиент_12-2);
      }

      .cls-2 {
        fill: url(#_Безымянный_градиент_12);
      }
    </style>
    <linearGradient id="_Безымянный_градиент_12" data-name="Безымянный градиент 12" x1="-424.26" y1="658.58" x2="2541.42" y2="3624.26" gradientUnits="userSpaceOnUse">
      <stop offset="0" stop-color="#9810fa"/>
      <stop offset="1" stop-color="#155dfb"/>
    </linearGradient>
    <linearGradient id="_Безымянный_градиент_12-2" data-name="Безымянный градиент 12" x1="1774.73" y1="293.9" x2="2906.1" y2="1425.27" xlink:href="#_Безымянный_градиент_12"/>
  </defs>
  <path class="cls-2" d="m2800,2400h-901.92c-606.45,0-1098.08-491.63-1098.08-1098.08V400C800,179.09,620.91,0,400,0h0C179.09,0,0,179.09,0,400v2000h0c0,441.83,358.17,800,800,800h2000c220.91,0,400-179.09,400-400h0c0-220.91-179.09-400-400-400Z"/>
  <path class="cls-1" d="m2400,0h0c-441.83,0-800,358.17-800,800v406.88c0,217.11,176.01,393.12,393.12,393.12h406.88c441.83,0,800-358.17,800-800h0C3200,358.17,2841.83,0,2400,0Z"/>
</svg>