<svg width="24" height="24" viewBox="0 0 24 24" fill="none" xmlns="http://www.w3.org/2000/svg">
<path d="M4 5.4C4 5.0287 4.1475 4.6726 4.41005 4.41005C4.6726 4.1475 5.0287 4 5.4 4H11C11.2652 4 11.5196 3.89464 11.7071 3.70711C11.8946 3.51957 12 3.26522 12 3C12 2.73478 11.8946 2.48043 11.7071 2.29289C11.5196 2.10536 11.2652 2 11 2H5.4C4.49826 2 3.63346 2.35821 2.99584 2.99584C2.35821 3.63346 2 4.49826 2 5.4V18.6C2 19.5017 2.35821 20.3665 2.99584 21.0042C3.63346 21.6418 4.49826 22 5.4 22H11C11.2652 22 11.5196 21.8946 11.7071 21.7071C11.8946 21.5196 12 21.2652 12 21C12 20.7348 11.8946 20.4804 11.7071 20.2929C11.5196 20.1054 11.2652 20 11 20H5.4C5.0287 20 4.6726 19.8525 4.41005 19.5899C4.1475 19.3274 4 18.9713 4 18.6V5.4Z" fill="white"/>
<path d="M16.293 7.293C16.4805 7.10553 16.7348 7.00021 17 7.00021C17.2652 7.00021 17.5195 7.10553 17.707 7.293L21.707 11.293C21.8945 11.4805 21.9998 11.7348 21.9998 12C21.9998 12.2652 21.8945 12.5195 21.707 12.707L17.707 16.707C17.5184 16.8892 17.2658 16.99 17.0036 16.9877C16.7414 16.9854 16.4906 16.8802 16.3052 16.6948C16.1198 16.5094 16.0146 16.2586 16.0123 15.9964C16.01 15.7342 16.1108 15.4816 16.293 15.293L18.586 13H7C6.73478 13 6.48043 12.8946 6.29289 12.7071C6.10536 12.5196 6 12.2652 6 12C6 11.7348 6.10536 11.4804 6.29289 11.2929C6.48043 11.1054 6.73478 11 7 11H18.586L16.293 8.707C16.1055 8.51947 16.0002 8.26516 16.0002 8C16.0002 7.73484 16.1055 7.48053 16.293 7.293Z" fill="white"/>
</svg>
